<?xml version="1.0" encoding="UTF-8"?><!DOCTYPE svg PUBLIC "-//W3C//DTD SVG 1.1//EN" "http://www.w3.org/Graphics/SVG/1.1/DTD/svg11.dtd"><svg xmlns="http://www.w3.org/2000/svg" xmlns:xlink="http://www.w3.org/1999/xlink"><defs/>
<symbol id="close" viewBox="0 0 13 13">
<path d="M6.36396 4.94978L11.3138 0L12.728 1.41421L7.77816 6.36398L12.728 11.3137L11.3138 12.7279L6.36396 7.77818L1.41422 12.7279L0 11.3137L4.94976 6.36398L0 1.41421L1.41422 0L6.36396 4.94978Z" fill="currentColor"/>
</symbol><symbol id="genres" viewBox="0 0 24 24">
<path d="M7 11.5C4.51472 11.5 2.5 9.48528 2.5 7C2.5 4.51472 4.51472 2.5 7 2.5C9.48528 2.5 11.5 4.51472 11.5 7C11.5 9.48528 9.48528 11.5 7 11.5ZM7 21.5C4.51472 21.5 2.5 19.4853 2.5 17C2.5 14.5147 4.51472 12.5 7 12.5C9.48528 12.5 11.5 14.5147 11.5 17C11.5 19.4853 9.48528 21.5 7 21.5ZM17 11.5C14.5147 11.5 12.5 9.48528 12.5 7C12.5 4.51472 14.5147 2.5 17 2.5C19.4853 2.5 21.5 4.51472 21.5 7C21.5 9.48528 19.4853 11.5 17 11.5ZM17 21.5C14.5147 21.5 12.5 19.4853 12.5 17C12.5 14.5147 14.5147 12.5 17 12.5C19.4853 12.5 21.5 14.5147 21.5 17C21.5 19.4853 19.4853 21.5 17 21.5ZM7 9.5C8.38071 9.5 9.5 8.38071 9.5 7C9.5 5.61929 8.38071 4.5 7 4.5C5.61929 4.5 4.5 5.61929 4.5 7C4.5 8.38071 5.61929 9.5 7 9.5ZM7 19.5C8.38071 19.5 9.5 18.3807 9.5 17C9.5 15.6193 8.38071 14.5 7 14.5C5.61929 14.5 4.5 15.6193 4.5 17C4.5 18.3807 5.61929 19.5 7 19.5ZM17 9.5C18.3807 9.5 19.5 8.38071 19.5 7C19.5 5.61929 18.3807 4.5 17 4.5C15.6193 4.5 14.5 5.61929 14.5 7C14.5 8.38071 15.6193 9.5 17 9.5ZM17 19.5C18.3807 19.5 19.5 18.3807 19.5 17C19.5 15.6193 18.3807 14.5 17 14.5C15.6193 14.5 14.5 15.6193 14.5 17C14.5 18.3807 15.6193 19.5 17 19.5Z" fill="currentColor"/>
</symbol><symbol id="key" viewBox="0 0 24 24">
<path d="M12.917 13C12.441 15.8377 9.973 18 7 18C3.68629 18 1 15.3137 1 12C1 8.68629 3.68629 6 7 6C9.973 6 12.441 8.16229 12.917 11H23V13H21V17H19V13H17V17H15V13H12.917ZM7 16C9.20914 16 11 14.2091 11 12C11 9.79086 9.20914 8 7 8C4.79086 8 3 9.79086 3 12C3 14.2091 4.79086 16 7 16Z" fill="currentColor"/>
</symbol><symbol id="like" viewBox="0 0 24 24">
<path d="M12,21.35L10.55,20.03C5.4,15.36 2,12.27 2,8.5 2,5.41 4.42,3 7.5,3c1.74,0 3.41.81 4.5,2.08C13.09,3.81 14.76,3 16.5,3 19.58,3 22,5.41 22,8.5c0,3.77-3.4,6.86-8.55,11.54L12,21.35Z" />
</symbol><symbol id="mail" viewBox="0 0 24 24">
<path d="M21 3C21.5523 3 22 3.44772 22 4V20.0066C22 20.5552 21.5447 21 21.0082 21H2.9918C2.44405 21 2 20.5551 2 20.0066V19H20V7.3L12 14.5L2 5.5V4C2 3.44772 2.44772 3 3 3H21ZM8 15V17H0V15H8ZM5 10V12H0V10H5ZM19.5659 5H4.43414L12 11.8093L19.5659 5Z" fill="currentColor"/>
</symbol><symbol id="ok" viewBox="0 0 11 18">
<path d="M7.24714 12.9023L9.90059 15.464C10.4442 15.9876 10.4442 16.838 9.90059 17.3622C9.35757 17.8863 8.47745 17.8863 7.935 17.3622L5.32614 14.8449L2.71955 17.3622C2.44776 17.624 2.09162 17.755 1.73548 17.755C1.3799 17.755 1.02433 17.624 0.752539 17.3622C0.209523 16.838 0.209523 15.9881 0.751971 15.464L3.4057 12.9023C2.43952 12.6899 1.50771 12.3203 0.649445 11.8006C-7.1612e-05 11.4052 -0.195182 10.577 0.214067 9.94953C0.622181 9.32118 1.48044 9.13202 2.13109 9.52734C4.07425 10.7073 6.57746 10.7075 8.52175 9.52734C9.1724 9.13202 10.0304 9.32118 10.4393 9.94953C10.8486 10.5765 10.6529 11.4052 10.0034 11.8006C9.14514 12.3209 8.21332 12.6899 7.24714 12.9023Z" fill="currentColor"/>
<path fill-rule="evenodd" clip-rule="evenodd" d="M0.568359 4.58207C0.568359 7.10805 2.69725 9.16277 5.31492 9.16277C7.93315 9.16277 10.0615 7.10805 10.0615 4.58207C10.0615 2.05527 7.93315 0 5.31492 0C2.69725 0 0.568359 2.05527 0.568359 4.58207ZM7.28015 4.58158C7.28015 3.53544 6.3986 2.68477 5.31484 2.68477C4.23193 2.68477 3.34953 3.53544 3.34953 4.58158C3.34953 5.6269 4.23193 6.47812 5.31484 6.47812C6.3986 6.47812 7.28015 5.6269 7.28015 4.58158Z" fill="currentColor"/>
</symbol><symbol id="search" viewBox="0 0 24 24">
<path d="M18.031 16.6168L22.3137 20.8995L20.8995 22.3137L16.6168 18.031C15.0769 19.263 13.124 20 11 20C6.032 20 2 15.968 2 11C2 6.032 6.032 2 11 2C15.968 2 20 6.032 20 11C20 13.124 19.263 15.0769 18.031 16.6168ZM16.0247 15.8748C17.2475 14.6146 18 12.8956 18 11C18 7.1325 14.8675 4 11 4C7.1325 4 4 7.1325 4 11C4 14.8675 7.1325 18 11 18C12.8956 18 14.6146 17.2475 15.8748 16.0247L16.0247 15.8748Z" fill="currentColor"/>
</symbol><symbol id="star" viewBox="0 0 16 16">
<path d="M8.00105 12.1734L3.29875 14.8055L4.34897 9.51997L0.392578 5.86124L5.74394 5.22675L8.00105 0.333374L10.2581 5.22675L15.6095 5.86124L11.6531 9.51997L12.7033 14.8055L8.00105 12.1734Z" fill="currentColor"/>
</symbol><symbol id="telegram" viewBox="0 0 17 14">
<path d="M0.248522 6.33899C1.93187 5.41175 3.81095 4.63787 5.56667 3.86003C8.58719 2.58599 11.6197 1.33403 14.6828 0.168471C15.2788 -0.0301292 16.3496 -0.224349 16.4546 0.658851C16.3972 1.90901 16.1606 3.15185 15.9984 4.39469C15.5866 7.12781 15.1107 9.85157 14.6466 12.5757C14.4867 13.4831 13.35 13.9528 12.6227 13.3721C10.8748 12.1915 9.11339 11.0223 7.38779 9.81425C6.82253 9.23987 7.34669 8.41505 7.85153 8.00489C9.29117 6.58613 10.8179 5.38073 12.1823 3.88865C12.5504 2.99987 11.4629 3.74891 11.1043 3.97841C9.13337 5.33657 7.21073 6.77765 5.13281 7.97129C4.07141 8.55557 2.83433 8.05625 1.77341 7.73021C0.822158 7.33637 -0.571774 6.93959 0.248426 6.33905L0.248522 6.33899Z" fill="currentColor"/>
</symbol><symbol id="update" viewBox="0 0 20 20">
<path d="M10 2C12.7486 2 15.1749 3.38626 16.6156 5.5H14V7.5H20V1.5H18V3.99936C16.1762 1.57166 13.2724 0 10 0C4.47715 0 0 4.47715 0 10H2C2 5.58172 5.58172 2 10 2ZM18 10C18 14.4183 14.4183 18 10 18C7.25144 18 4.82508 16.6137 3.38443 14.5H6V12.5H0V18.5H2V16.0006C3.82381 18.4283 6.72764 20 10 20C15.5228 20 20 15.5228 20 10H18Z" fill="currentColor"/>
</symbol><symbol id="user" viewBox="0 0 24 24">
<path d="M4 22C4 17.5817 7.58172 14 12 14C16.4183 14 20 17.5817 20 22H18C18 18.6863 15.3137 16 12 16C8.68629 16 6 18.6863 6 22H4ZM12 13C8.685 13 6 10.315 6 7C6 3.685 8.685 1 12 1C15.315 1 18 3.685 18 7C18 10.315 15.315 13 12 13ZM12 11C14.21 11 16 9.21 16 7C16 4.79 14.21 3 12 3C9.79 3 8 4.79 8 7C8 9.21 9.79 11 12 11Z" fill="currentColor"/>
</symbol><symbol id="vk" viewBox="0 0 19 11">
<path fill-rule="evenodd" clip-rule="evenodd" d="M18.2795 0.699502C18.4182 0.30493 18.2795 0.0179495 17.6649 0.0179495H15.6228C15.1073 0.0179495 14.8694 0.269031 14.7306 0.538115C14.7306 0.538115 13.6798 2.8339 12.2127 4.32255C11.7369 4.75302 11.5188 4.89651 11.2611 4.89651C11.1223 4.89651 10.9439 4.75302 10.9439 4.35845V0.681552C10.9439 0.215235 10.7853 0 10.3491 0H7.13733C6.82011 0 6.62187 0.215235 6.62187 0.430471C6.62187 0.878891 7.3554 0.986482 7.43471 2.24199V4.96826C7.43471 5.56017 7.31578 5.66776 7.05802 5.66776C6.36412 5.66776 4.67893 3.35402 3.66781 0.717451C3.46951 0.197286 3.27128 0 2.75583 0H0.693898C0.0991342 0 0 0.251134 0 0.520165C0 1.00443 0.693898 3.44371 3.2316 6.67219C4.91685 8.87828 7.31578 10.0621 9.4768 10.0621C10.7853 10.0621 10.9439 9.79302 10.9439 9.34465V7.67662C10.9439 7.1385 11.0628 7.04886 11.4792 7.04886C11.7766 7.04886 12.3119 7.1923 13.5212 8.25053C14.909 9.50604 15.147 10.08 15.9202 10.08H17.9623C18.557 10.08 18.8346 9.81097 18.676 9.29081C18.4975 8.77069 17.8235 8.0174 16.9511 7.12056C16.4753 6.61839 15.7616 6.06238 15.5435 5.7933C15.2461 5.43463 15.3254 5.29113 15.5435 4.96826C15.5237 4.96826 18.0217 1.77568 18.2795 0.699502Z" fill="currentColor"/>
</symbol><symbol id="youtube" viewBox="0 0 16 12">
<path fill-rule="evenodd" clip-rule="evenodd" d="M13.681 0.329597C14.3419 0.510956 14.8624 1.04533 15.039 1.72393C15.36 2.95382 15.36 5.52 15.36 5.52C15.36 5.52 15.36 8.08609 15.039 9.31607C14.8624 9.99467 14.3419 10.529 13.681 10.7105C12.4832 11.04 7.68 11.04 7.68 11.04C7.68 11.04 2.87677 11.04 1.67895 10.7105C1.01804 10.529 0.497542 9.99467 0.320902 9.31607C0 8.08609 0 5.52 0 5.52C0 5.52 0 2.95382 0.320902 1.72393C0.497542 1.04533 1.01804 0.510956 1.67895 0.329597C2.87677 0 7.68 0 7.68 0C7.68 0 12.4832 0 13.681 0.329597ZM6.23997 3.36023V8.16023L10.08 5.76033L6.23997 3.36023Z" fill="currentColor"/>
</symbol><symbol id="arrow" viewBox="0 0 13 22">
<path d="M4.714 10.6066L12.9637 18.8561L10.6067 21.2131L0 10.6066L10.6067 0L12.9637 2.35702L4.714 10.6066Z" fill="currentColor"/>
</symbol><symbol id="logo-title" viewBox="0 0 100 21">
<path fill-rule="evenodd" clip-rule="evenodd" d="M27.3462 0C29.251 0 30.7462 0.6 31.8319 1.8C32.9367 2.98095 33.4891 4.64762 33.4891 6.8V15.1429H31.0605L30.3748 12.8C29.9557 13.5048 29.3367 14.1238 28.5176 14.6571C27.6986 15.1714 26.7272 15.4286 25.6033 15.4286C24.6129 15.4286 23.7176 15.2286 22.9176 14.8286C22.1367 14.4286 21.5272 13.8667 21.0891 13.1429C20.651 12.419 20.4319 11.6 20.4319 10.6857C20.4319 9.27619 20.9843 8.15238 22.0891 7.31429C23.2129 6.45714 24.8414 6.02857 26.9748 6.02857H30.1748C30.0986 5.03809 29.7938 4.25714 29.2605 3.68571C28.7462 3.09524 28.051 2.8 27.1748 2.8C26.47 2.8 25.8605 2.97143 25.3462 3.31429C24.8319 3.65714 24.451 4.07619 24.2033 4.57143L21.1748 4.05714C21.5367 2.8 22.2795 1.80952 23.4033 1.08571C24.5462 0.361905 25.8605 0 27.3462 0ZM26.3748 12.6571C27.5176 12.6571 28.4414 12.2857 29.1462 11.5429C29.851 10.8 30.2033 9.81905 30.2033 8.6H27.0891C24.8605 8.6 23.7462 9.24762 23.7462 10.5429C23.7462 11.1905 23.9843 11.7048 24.4605 12.0857C24.9367 12.4667 25.5748 12.6571 26.3748 12.6571ZM37.0536 0.285714V21H40.3393V12.8857C40.9298 13.6095 41.6917 14.219 42.625 14.7143C43.5583 15.1905 44.625 15.4286 45.825 15.4286C47.2155 15.4286 48.4631 15.1048 49.5679 14.4571C50.6726 13.7905 51.5298 12.8762 52.1393 11.7143C52.7679 10.5333 53.0821 9.2 53.0821 7.71429C53.0821 6.22857 52.7679 4.90476 52.1393 3.74286C51.5298 2.5619 50.6726 1.64762 49.5679 1C48.4631 0.333333 47.2155 0 45.825 0C44.5869 0 43.4917 0.266666 42.5393 0.799999C41.5869 1.31429 40.806 1.94286 40.1964 2.68571L39.5107 0.285714H37.0536ZM48.3679 11.1714C47.5107 12.0476 46.3964 12.4857 45.025 12.4857C43.6345 12.4857 42.5012 12.0476 41.625 11.1714C40.7679 10.2762 40.3393 9.12381 40.3393 7.71429C40.3393 6.30476 40.7679 5.1619 41.625 4.28571C42.5012 3.39048 43.6345 2.94286 45.025 2.94286C46.3964 2.94286 47.5107 3.39048 48.3679 4.28571C49.225 5.1619 49.6536 6.30476 49.6536 7.71429C49.6536 9.12381 49.225 10.2762 48.3679 11.1714ZM74.0632 14.4571C75.2441 15.1048 76.5775 15.4286 78.0632 15.4286C79.6822 15.4286 81.1489 15.019 82.4632 14.2C83.7775 13.381 84.7013 12.219 85.2346 10.7143L82.1489 10.2C81.806 10.8667 81.2917 11.4095 80.606 11.8286C79.9203 12.2286 79.1394 12.4286 78.2632 12.4286C76.9298 12.4286 75.8441 11.9905 75.006 11.1143C74.1679 10.2381 73.7489 9.10476 73.7489 7.71429C73.7489 6.32381 74.1679 5.19048 75.006 4.31429C75.8441 3.4381 76.9298 3 78.2632 3C79.1013 3 79.8536 3.2 80.5203 3.6C81.206 4 81.7108 4.52381 82.0346 5.17143L85.1203 4.65714C84.587 3.17143 83.6822 2.02857 82.406 1.22857C81.1489 0.409524 79.7013 0 78.0632 0C76.5775 0 75.2441 0.333333 74.0632 1C72.8822 1.64762 71.9584 2.5619 71.2917 3.74286C70.6441 4.90476 70.3203 6.22857 70.3203 7.71429C70.3203 9.2 70.6441 10.5333 71.2917 11.7143C71.9584 12.8762 72.8822 13.7905 74.0632 14.4571ZM99.4707 15.1429V0.285714H92.8708C91.766 0.285714 90.7755 0.504762 89.8993 0.942858C89.0231 1.3619 88.3374 1.95238 87.8422 2.71429C87.3469 3.47619 87.0993 4.34286 87.0993 5.31429C87.0993 6.36191 87.3755 7.28571 87.9279 8.08571C88.4803 8.88571 89.2422 9.47619 90.2136 9.85714L86.6708 15.1429H90.4136L93.5565 10.3714H96.185V15.1429H99.4707ZM96.185 3.14286V7.51428H92.8708C92.1279 7.51428 91.5279 7.31429 91.0708 6.91429C90.6136 6.51429 90.385 5.98095 90.385 5.31429C90.385 4.66667 90.6136 4.14286 91.0708 3.74286C91.5279 3.34286 92.1279 3.14286 92.8708 3.14286H96.185ZM65.9565 0.285714H69.2993L63.2136 17C62.6993 18.4095 62.0327 19.4286 61.2136 20.0571C60.4136 20.6857 59.3374 21 57.985 21H55.7279L55.4422 18H58.2136C58.766 18 59.185 17.8762 59.4708 17.6286C59.7755 17.4 60.0327 16.9905 60.2422 16.4L60.4136 15.9429L53.8136 0.285714H57.3279L61.6993 11H62.1565L65.9565 0.285714ZM0 15.1429H3.14286V4.11429H3.6L7.31428 15.1429H10.0857L13.9714 4.11429H14.4286V15.1429H17.5714V0.285714H12.5714L9 10.4857H8.54286L5.11428 0.285714H0V15.1429Z" fill="currentColor"/>
</symbol>
</svg>
